<svg width="160" height="180" viewBox="0 0 160 180" fill="none" xmlns="http://www.w3.org/2000/svg">
<path d="M56.7251 140.618L82.2416 140.9C99.7383 141.092 109.019 120.309 97.2008 107.399L59.4941 66.2074C47.6762 53.2972 56.9566 32.514 74.4534 32.7068L101.973 33.0101" stroke="#FF0149" stroke-width="17" stroke-linecap="round"/>
<path d="M23.6646 103.953L23.4988 78.2597C23.3804 59.9128 45.9635 51.0928 58.3006 64.6676L101.274 111.952C113.611 125.527 136.194 116.707 136.075 98.3597L135.932 76.0715" stroke="black" stroke-width="17" stroke-linecap="round"/>
<path d="M129.036 58.2623C122.954 58.4414 117.879 53.6363 117.7 47.5298C117.522 41.4234 122.308 36.328 128.39 36.1489C134.472 35.9699 139.547 40.775 139.725 46.8814C139.903 52.9878 135.118 58.0833 129.036 58.2623Z" fill="black"/>
<path d="M31.4301 143.368C25.3481 143.547 20.2732 138.742 20.0948 132.636C19.9165 126.529 24.7023 121.434 30.7843 121.255C36.8662 121.076 41.9412 125.881 42.1196 131.987C42.2979 138.094 37.5121 143.189 31.4301 143.368Z" fill="black"/>
</svg>
