<svg width="20" height="20" viewBox="0 0 20 20" fill="#FF0149" xmlns="http://www.w3.org/2000/svg">
<path d="M3.99997 20C2.31411 19.9996 0.80947 18.9422 0.237872 17.3562C-0.333726 15.7702 0.150432 13.9961 1.44843 12.9203C2.74643 11.8445 4.5796 11.698 6.03197 12.554L12.554 6.03199C11.5337 4.29851 11.9613 2.07679 13.5521 0.845885C15.143 -0.38502 17.4009 -0.241182 18.8228 1.18164C20.2446 2.60446 20.3868 4.86249 19.1548 6.45249C17.9228 8.04248 15.7007 8.46853 13.968 7.44699L7.44697 13.968C8.17644 15.2049 8.18694 16.7379 7.47448 17.9846C6.76202 19.2314 5.43593 20.0006 3.99997 20ZM3.99997 14C2.8954 14 1.99997 14.8954 1.99997 16C1.99997 17.1046 2.8954 18 3.99997 18C5.10454 18 5.99997 17.1046 5.99997 16C5.99997 14.8954 5.10454 14 3.99997 14ZM16 1.99999C14.9074 2.0011 14.0179 2.87884 14.0022 3.97133C13.9865 5.06382 14.8505 5.96669 15.9427 5.99911C17.0348 6.03153 17.9508 5.18149 18 4.08999V4.48999V3.99999C18 2.89542 17.1045 1.99999 16 1.99999Z" fill="#FF4646"/>
</svg>
